<?xml version="1.0" standalone="no"?>
<svg viewBox="0 0 200 200" xmlns="http://www.w3.org/2000/svg" height="650"  width="650">
  <path fill="#28a745"  d="M16,-25.6C22,-24.2,29,-22.5,35.3,-18.2C41.6,-13.9,47.2,-6.9,55.3,4.7C63.4,16.3,73.9,32.5,68.7,38.7C63.5,44.9,42.4,41,28.4,38.7C14.3,36.4,7.1,35.8,-3,41C-13.2,46.2,-26.3,57.3,-36.3,57.2C-46.3,57.1,-53.1,45.9,-53.6,34.5C-54,23.1,-48.1,11.5,-47.3,0.4C-46.6,-10.7,-51.1,-21.4,-48.9,-29.8C-46.7,-38.2,-37.9,-44.2,-28.6,-43.8C-19.4,-43.3,-9.7,-36.3,-2.4,-32.2C5,-28.1,10,-27,16,-25.6Z" transform="translate(100 100)" />
</svg>
