<?xml version="1.0" standalone="no"?>
<svg viewBox="0 0 200 200" xmlns="http://www.w3.org/2000/svg" height="512"  width="512">
  <path fill="#e8bc41"  d="M28.7,-52.3C38.7,-43.8,49.5,-39.3,55.9,-31.3C62.3,-23.2,64.2,-11.6,61.5,-1.6C58.8,8.5,51.4,17,43.2,21.8C34.9,26.6,25.8,27.7,18.4,29C11.1,30.3,5.5,31.7,-1.2,33.7C-7.9,35.8,-15.7,38.3,-21.7,36.2C-27.6,34.1,-31.6,27.3,-39.9,20.5C-48.2,13.7,-60.9,6.8,-60.7,0.1C-60.5,-6.6,-47.5,-13.2,-40.7,-22.8C-33.9,-32.3,-33.5,-44.7,-27.7,-55.6C-22,-66.6,-11,-76,-0.8,-74.5C9.3,-73.1,18.6,-60.7,28.7,-52.3Z" transform="translate(100 100)" />
</svg>
