<svg height="512" viewBox="0 0 74 74" width="512" xmlns="http://www.w3.org/2000/svg"><g id="color_line" data-name="color line"><path d="m67.471 63.73a6.445 6.445 0 0 1 -7.847 1.77c-5.262-2.5-10.433-8.1-15.514-16.253a2.41 2.41 0 1 0 -3.07-2.454h-8.08a2.406 2.406 0 1 0 -3.07 2.454c-5.081 8.153-10.252 13.753-15.514 16.253a6.445 6.445 0 0 1 -7.847-1.77c-3.919-5.07-4.757-14.584-1.586-23.987 4.02-11.918 12.948-19.159 19.967-16.15a8.762 8.762 0 0 1 1.717.98 5.842 5.842 0 0 0 3.444 1.091h13.857a5.842 5.842 0 0 0 3.444-1.091 8.762 8.762 0 0 1 1.717-.98c7.019-3.01 15.948 4.232 19.967 16.15 3.172 9.403 2.334 18.917-1.585 23.987z" fill="#eeefee"/><path d="m67.91 63.12c1.95-5.31 1.91-12.69-.56-20-4.02-11.92-12.95-19.16-19.96-16.15a8.132 8.132 0 0 0 -1.72.98 5.823 5.823 0 0 1 -3.45 1.09h-13.85a5.823 5.823 0 0 1 -3.45-1.09 8.314 8.314 0 0 0 -1.71-.98c-5.64-2.42-12.51 1.78-17.08 9.7 4.41-10.05 12.39-15.82 18.78-13.08a9.428 9.428 0 0 1 1.72.98 5.815 5.815 0 0 0 3.44 1.09h13.86a5.815 5.815 0 0 0 3.44-1.09 9.428 9.428 0 0 1 1.72-.98c7.02-3.01 15.95 4.24 19.97 16.15 3.05 9.04 2.39 18.18-1.15 23.38z" fill="#e1e6e9"/><path d="m25.181 37.9a1.519 1.519 0 0 1 -1.515 1.515h-3.666v3.666a1.515 1.515 0 1 1 -3.03 0v-3.661h-3.67a1.515 1.515 0 1 1 0-3.03h3.67v-3.656a1.515 1.515 0 0 1 3.03 0v3.656h3.666a1.526 1.526 0 0 1 1.515 1.51z" fill="#9297ab"/><path d="m18.484 45.1a2.017 2.017 0 0 1 -2.015-2.015v-3.165h-3.169a2.015 2.015 0 0 1 0-4.03h3.17v-3.156a2.015 2.015 0 1 1 4.03 0v3.156h3.167a2.015 2.015 0 0 1 0 4.03h-3.167v3.167a2.017 2.017 0 0 1 -2.016 2.013zm-5.184-8.21a1.028 1.028 0 0 0 -1.011 1.01 1.016 1.016 0 0 0 1.011 1.02h3.67a.5.5 0 0 1 .5.5v3.667a1.015 1.015 0 0 0 2.03 0v-3.667a.5.5 0 0 1 .5-.5h3.667a1.016 1.016 0 0 0 1.014-1.02 1.028 1.028 0 0 0 -1.015-1.015h-3.666a.5.5 0 0 1 -.5-.5v-3.651a1.015 1.015 0 1 0 -2.03 0v3.656a.5.5 0 0 1 -.5.5z" fill="#323c6b"/><path d="m62.68 38.051a2.366 2.366 0 1 1 -2.372-2.372 2.373 2.373 0 0 1 2.372 2.372z" fill="#fe7058"/><path d="m57.427 32.8a2.366 2.366 0 1 1 -2.361-2.361 2.366 2.366 0 0 1 2.361 2.361z" fill="#27ccbc"/><path d="m52.185 38.051a2.366 2.366 0 1 1 -2.372-2.372 2.373 2.373 0 0 1 2.372 2.372z" fill="#fcd462"/><ellipse cx="55.063" cy="43.293" fill="#05afd6" rx="2.366" ry="2.361"/><path d="m62.68 38.05a2.341 2.341 0 0 1 -1.01 1.93 1.619 1.619 0 0 0 .01-.22 2.375 2.375 0 0 0 -2.37-2.37 2.333 2.333 0 0 0 -1.35.43 2.365 2.365 0 0 1 4.72.23z" fill="#ea6453"/><path d="m57.43 32.8a2.36 2.36 0 0 1 -1.02 1.95 1.925 1.925 0 0 0 .01-.24 2.361 2.361 0 0 0 -3.72-1.93 2.371 2.371 0 0 1 4.73.22z" fill="#21b3a9"/><path d="m52.18 38.05a2.341 2.341 0 0 1 -1.01 1.93 1.619 1.619 0 0 0 .01-.22 2.369 2.369 0 0 0 -2.37-2.37 2.333 2.333 0 0 0 -1.35.43 2.365 2.365 0 0 1 4.72.23z" fill="#f7be56"/><path d="m57.43 43.29a2.329 2.329 0 0 1 -1.02 1.94 1.693 1.693 0 0 0 .01-.23 2.361 2.361 0 0 0 -3.72-1.93 2.371 2.371 0 0 1 4.73.22z" fill="#27a2db"/><g fill="#323c6b"><path d="m34.636 30.288h-2.176a.5.5 0 0 1 0-1h2.176a.5.5 0 0 1 0 1z"/><path d="m41.54 30.288h-2.176a.5.5 0 0 1 0-1h2.176a.5.5 0 0 1 0 1z"/><path d="m38.345 17.507a.5.5 0 0 1 -.355-.148 1.444 1.444 0 0 0 -2.041-.01.5.5 0 0 1 -.7-.711 2.447 2.447 0 0 1 3.455.017.5.5 0 0 1 -.355.852z"/><path d="m45 11.713a.5.5 0 0 1 -.355-.148 10.744 10.744 0 0 0 -7.635-3.2h-.055a10.743 10.743 0 0 0 -7.611 3.126.5.5 0 1 1 -.7-.711 11.834 11.834 0 0 1 16.716.082.5.5 0 0 1 -.355.852z"/><path d="m41.958 14.729a.5.5 0 0 1 -.355-.148 6.542 6.542 0 0 0 -9.24-.045.5.5 0 0 1 -.7-.711 7.543 7.543 0 0 1 10.654.052.5.5 0 0 1 -.355.852z"/><path d="m37 26.017a.5.5 0 0 1 -.5-.5v-2.778a.5.5 0 1 1 1 0v2.777a.5.5 0 0 1 -.5.501z"/></g><circle cx="37" cy="21.035" fill="#eeefee" r="1.704"/><path d="m37 23.239a2.2 2.2 0 1 1 2.2-2.2 2.207 2.207 0 0 1 -2.2 2.2zm0-3.409a1.2 1.2 0 1 0 1.2 1.2 1.206 1.206 0 0 0 -1.2-1.199z" fill="#323c6b"/><path d="m59.75 69.227a.5.5 0 0 1 -.143-.021 10.543 10.543 0 0 1 -1.116-.4.5.5 0 1 1 .392-.92 9.482 9.482 0 0 0 1.009.357.5.5 0 0 1 -.143.979z" fill="#323c6b"/><path d="m56.5 67.721a.5.5 0 0 1 -.254-.07 32.447 32.447 0 0 1 -6.688-5.427.5.5 0 1 1 .72-.694 31.452 31.452 0 0 0 6.479 5.261.5.5 0 0 1 -.255.93z" fill="#323c6b"/><path d="m7.909 28.328a.5.5 0 0 1 -.4-.8q.141-.193.286-.38a.5.5 0 1 1 .789.613c-.091.117-.18.237-.27.358a.5.5 0 0 1 -.405.209z" fill="#323c6b"/><path d="m10.075 25.887a.5.5 0 0 1 -.353-.854 19.376 19.376 0 0 1 8.251-5.1.5.5 0 0 1 .27.963 18.379 18.379 0 0 0 -7.814 4.841.5.5 0 0 1 -.354.15z" fill="#323c6b"/><path d="m62.453 66.634a7.1 7.1 0 0 1 -3.043-.685c-5.16-2.449-10.45-7.976-15.724-16.437a.5.5 0 0 1 .284-.745 1.911 1.911 0 0 0 -.536-3.747 1.9 1.9 0 0 0 -1.895 1.8.5.5 0 0 1 -.5.472h-8.079a.5.5 0 0 1 -.5-.472 1.906 1.906 0 1 0 -2.435 1.945.5.5 0 0 1 .288.746c-5.273 8.462-10.563 13.989-15.722 16.438a6.964 6.964 0 0 1 -8.458-1.913c-4.127-5.336-4.796-15.166-1.664-24.453 2.614-7.751 7.331-13.79 12.621-16.152a9.8 9.8 0 0 1 8.018-.3 9.323 9.323 0 0 1 1.816 1.037 5.309 5.309 0 0 0 3.147.994h13.858a5.313 5.313 0 0 0 3.15-1 9.305 9.305 0 0 1 1.812-1.035 9.8 9.8 0 0 1 8.02.3c5.288 2.363 10.006 8.4 12.621 16.153 3.132 9.286 2.463 19.113-1.664 24.453a6.828 6.828 0 0 1 -5.415 2.601zm-40.877-43.219a10 10 0 0 0 -4.079.929c-4.962 2.217-9.591 8.179-12.08 15.556-3.03 8.986-2.424 18.438 1.507 23.525a5.959 5.959 0 0 0 7.238 1.621c4.883-2.315 9.924-7.55 14.99-15.565a2.91 2.91 0 1 1 4.242-3.188h7.212a2.906 2.906 0 1 1 4.239 3.185c5.066 8.017 10.109 13.253 14.993 15.568a5.956 5.956 0 0 0 7.238-1.622c3.931-5.086 4.537-14.539 1.508-23.521-2.489-7.38-7.119-13.342-12.081-15.559a8.836 8.836 0 0 0 -7.216-.291 8.288 8.288 0 0 0 -1.618.923 6.307 6.307 0 0 1 -3.74 1.188h-13.858a6.3 6.3 0 0 1 -3.738-1.187 8.306 8.306 0 0 0 -1.622-.925 7.9 7.9 0 0 0 -3.135-.637z" fill="#323c6b"/><path d="m46.45 46.934a3.015 3.015 0 0 1 -2.172 2.891 2.692 2.692 0 0 1 -.846.126 3.015 3.015 0 0 1 -3-3.018.776.776 0 0 1 .013-.177 3.007 3.007 0 0 1 6.01.177z" fill="#bbbbcd"/><path d="m33.573 46.934a3.015 3.015 0 0 1 -2.173 2.892 2.692 2.692 0 0 1 -.846.126 3.015 3.015 0 0 1 -3-3.018.776.776 0 0 1 .013-.177 3.007 3.007 0 0 1 6.01.177z" fill="#bbbbcd"/><path d="m45.63 48.98a2.963 2.963 0 0 0 .03-.42 3.017 3.017 0 0 0 -3.02-3.02 2.966 2.966 0 0 0 -2.17.94 3.007 3.007 0 0 1 5.98.45 2.956 2.956 0 0 1 -.82 2.05z" fill="#9297ab"/><path d="m32.75 48.98a2.963 2.963 0 0 0 .03-.42 3.017 3.017 0 0 0 -3.02-3.02 2.966 2.966 0 0 0 -2.17.94 3.007 3.007 0 0 1 5.98.45 2.956 2.956 0 0 1 -.82 2.05z" fill="#9297ab"/><path d="m43.432 50.452a3.515 3.515 0 0 1 -3.5-3.518 1.182 1.182 0 0 1 .028-.3 3.468 3.468 0 0 1 3.477-3.22 3.515 3.515 0 0 1 .987 6.889 3.142 3.142 0 0 1 -.992.149zm0-6.035a2.5 2.5 0 0 0 -2.493 2.369l-.012.149a2.514 2.514 0 0 0 2.5 2.518 2.187 2.187 0 0 0 .688-.1 2.515 2.515 0 0 0 -.688-4.935z" fill="#323c6b"/><path d="m30.555 50.452a3.515 3.515 0 0 1 -3.5-3.518 1.229 1.229 0 0 1 .026-.293 3.471 3.471 0 0 1 3.479-3.224 3.515 3.515 0 0 1 .986 6.889 3.141 3.141 0 0 1 -.991.146zm0-6.035a2.5 2.5 0 0 0 -2.494 2.369l-.011.149a2.514 2.514 0 0 0 2.5 2.518 2.186 2.186 0 0 0 .688-.1 2.515 2.515 0 0 0 -.687-4.935z" fill="#323c6b"/><path d="m60.308 40.912a2.866 2.866 0 1 1 2.872-2.861 2.864 2.864 0 0 1 -2.872 2.861zm0-4.733a1.866 1.866 0 1 0 1.872 1.872 1.868 1.868 0 0 0 -1.872-1.872z" fill="#323c6b"/><path d="m55.066 35.67a2.866 2.866 0 1 1 2.86-2.872 2.876 2.876 0 0 1 -2.86 2.872zm0-4.732a1.866 1.866 0 1 0 1.86 1.86 1.868 1.868 0 0 0 -1.86-1.86z" fill="#323c6b"/><path d="m49.813 40.912a2.866 2.866 0 1 1 2.872-2.861 2.864 2.864 0 0 1 -2.872 2.861zm0-4.733a1.866 1.866 0 1 0 1.872 1.872 1.869 1.869 0 0 0 -1.872-1.872z" fill="#323c6b"/><path d="m55.066 46.154a2.861 2.861 0 1 1 2.86-2.86 2.87 2.87 0 0 1 -2.86 2.86zm0-4.721a1.861 1.861 0 1 0 1.86 1.861 1.869 1.869 0 0 0 -1.86-1.861z" fill="#323c6b"/></g></svg>