<svg id="Capa_1" enable-background="new 0 0 512 512" height="512" viewBox="0 0 512 512" width="512" xmlns="http://www.w3.org/2000/svg"><g><g><path d="m401.939 465.51c-.247 0-.5.024-.748.07 1.17-1.45 1.112-3.658-.127-5.052-13.472-13.77-27.04-3.691-42.665-5.547-7.557 2.089-8.696 16.237-2.102 19.968-19.489 4.887-38.409 10.741-56.578 17.522-7.277 3.377 3.597 18.154 9.652 16.478 2.454 1.387 86.204-23.608 90.87-24.278 2.736-.772 6.468-1.906 6.951-5.15.216-4.305.549-13.238-5.253-14.011z" fill="#f0f1fa"/><path d="m354.734 456.168c-.486-1.072-1.42-1.875-2.553-2.193-10.411-1.464-8.633-14.788-15.908-11.725-1.514.687-30.983 13.447-36.581 15.831-2.701 1.876-10.904 1.639-9.852 7.065 2.45 5.705 1.726 30.698 10.395 28.191 16.847-6.242 34.172-11.696 51.494-16.212 1.205-.314 2.194-1.173 2.674-2.322s.396-2.456-.228-3.534c-3.36-4.202 1.287-10.13.559-15.101z" fill="#c13030"/><path d="m403.593 19.333c-26.598-11.781-66.858-11.206-80.428 15.548-8.582-16.282-36.063-10.012-19.824 8.138-12.789-3.139-11.712 14.13.693 16.272-31.801 21.485-5.529 87.53 30.446 59.713 5.725-6.094-9.416-9.298-5.008-19.757 4.513-13.112 23.223-10.457 33.818-.737 2.041 1.706 5.425.724 6.238-1.802 7.079-18.773 33.711-29.241 35.332-51.377 16.612-3.817 14.918-22.462-1.267-25.998z" fill="#b25932"/><path d="m428.039 209.688c-2.369-7.028-9.561-4.023-14.494-2.778-2.559-2.77-5.346-7.031-10.254-6.339-4.771.171-14.148 6.923-13.866 14.258 6.341 15.162-3.382 26.893 2.477 29.219 8.685 6.049 42.581 2.697 32.072-12.749 5.086-1.778 6.011-9.535 1.468-12.447 2.989-1.977 4.055-5.619 2.597-9.164z" fill="#ffcfcf"/><path d="m364.138 144.725c14.278 8.369 37.839 16.362 40.671-5.466.147-1.402-.49-2.814-1.637-3.634 3.581-3.248.7-8.312.339-12.935 1.97-1.779 23.479-10.576 22.814-14.069 1.001-3.356-9.058-9.676-10.66-11.806 4.87-6.241-1.705-59.214-13.345-44.191-6.335 17.915-30.778 28.344-34.994 48.04-27.867-27.742-54.287 2.257-30.165 14.66-5.357 5.128-11.894 9.192-18.307 9.396-1.082.064-2.092.565-2.796 1.389-2.345 3.974-10.681 9.322-5.59 13.881.001 0 33.41 23.26 33.41 23.26 1.564 1.09 3.693.921 5.067-.421 1.58-2.65 17.571-14.191 15.193-18.104z" fill="#ffcfcf"/><path d="m119.872 322.074c18.926 32.386 12.147 50.029 13.737 81.662 3.19 19.053 24.448 63.302 49.078 69.58 35.134-5.108 3.057-69.185 44.368-96.699 7.485-4.773-35.374-51.555-40.381-59.685-23.553-3.277-45.166-11.787-51.098-35.218-5.632-17.565-13.56-40.674 11.299-43.943 12.954-5.601 18.64-23.435 33.347-24.593 1.269-.077 2.424-.754 3.112-1.823 9.487-10.504 25.017-11.687 37.092-18.783 6.275-3.5-4.402-13.028-.003-23.6 2.363-13.619-33.702 7.218-37.677 7.765l-8.172-34.603c9.431-5.901 19.955-10.51 31.284-13.702 2.815-.701 3.884-4.538 1.81-6.585-9.671-10.251-9.849-28.572-13.663-42.447-4.566-13.889-28.734-67.591-47.515-43.259-5.585 8.721-3.08 22.991-1.691 28.898 3.167 20.722.754 41.912-6.983 61.298-28.005 54.843-17.442 53.375-14.952 99.651-11.624 42.877-28.77 49.74-2.992 96.086z" fill="#c2e9f9"/><path d="m334.163 444.295c-2.552.209-30.677 15.543-32.601 11.784-.718 4.686-8.743 5.464-11.515 5.703-7.198 0-10.867-5.792-13.748-11.226-1.476-2.981-4.048-5.414-2.183-8.265-28.364-37.766-52.341-83.856-84.723-120.425-1.416-1.675-1.077-4.377.678-5.673-31.175.568-59.021-17.118-56.05-43.797-6.5-2.552-6.201-21.106-2.861-28.095 3.19-5.045 10.448-5.264 15.304-7.438 12.153-3.978 19.62-26.879 34.276-23.359 3.021 4.716-.349 13.26 2.253 19.93.299 1.406-.18 2.792-1.147 3.719 1.306.309 2.423 1.266 2.871 2.612 2.552 7.737 6.451 15.423 11.904 23.499.738 1.097.927 2.562.359 3.759 5.613 1.047 10.787 12.422 16.131 16.221 8.066 7.328 14.247 10.458 20.667 10.458 4.825.598 10.089-5.364 14.646-2.303 59.25 55.821 85.73 98.222 88.242 125.46 1.515.219 2.802 1.296 3.25 2.811 3.09 10.707 6.719 21.046-5.753 24.625z" fill="#684141"/><g fill="#65beef"><path d="m265.029 308.5c11.453 6.161 10.367-21.534 5.71-26.828-4.358-6.081-14.251 5.166-19.567 6.067-8.575 5.072 11.076 15.88 13.857 20.761z"/><path d="m220.666 165.327c-2.93 6.653-4.01 21.868 4.38 24.611 6.397-2.626 14.416-5.621 19.291-10.624 1.852-5.318 3.026-17.53-4.309-19.257-4.956.942-17.086-.938-19.362 5.27z"/><path d="m83.803 294.439c7.737 28.897 24.355 30.145 15.481 66.538-7.928 28.355 5.768 53.283 19.015 77.39 13.747 24.237 24.498 64.258 54.645 62.99 29.59-.271 44.57-35.829 49.849-62.19 3.97-15.427 8.073-31.38 17.947-44.145 1.044-1.35 1.113-3.216.172-4.64-3.416-3.037-8.379-18.651-14.901-14.204-23.551 19.627-24.609 43.791-25.461 63.243.435 46.009-28.717 38.779-49.236 3.571-16.076-25.934-18.14-39.211-16.899-61.739 8.581-48.302-46.717-82.689-18.821-130.396 23.792-51.319-17.056-53.699 23.243-124.366 7.745-19.581 10.139-40.936 6.923-61.745-1.072-7.079-2.898-14.452-1.34-21.25 15.948-40.978 50.247 29.317 51.254 48.632 2.577 12.819 4.883 29.769 17.485 34.38 4.078-.65 8.172-1.589 12.28-2.025 12.77-12.932-19.912-86.029-40.988-107.597-16.587-16.926-34.749-16.685-49.273 2.56-11.486 21.285-12.718 46.577-20.044 69.284-9.093 35.256-19.625 73.569-16.5 110.758 6.425 44.769-18.371 61.927-14.831 94.951z"/></g><path d="m386.794 212.398c-16.815 5.097-36.027 2.291-51.067-6.612 5.221.038 13.415-41.22 8.681-43.379-.002 0-35.345-24.596-35.345-24.596-2.014-1.485-4.487-.424-6.051 1.197-3.606-11.832-46.593-16.72-59.677-16.645-17.016-.438-63.713 7.419-69.231 22.109.002.002 6.851 28.984 6.851 28.984.389 1.764 2.08 3.097 3.881 3.071 24.611-10.08 54.922-22.891 80.947-10.161-21.77 14.058-44.924 25.885-69.246 35.336-5.347 2.165-12.081 4.552-14.542 10.253-7.073 27.309 21.84 78.396 52.105 82.8 19.779-3.715 66.94-33.21 74.725-50.824 13.849 8.476 68.246 14.613 79.74-.7 5.094-5.666 6.735-29.077-1.771-30.833z" fill="#b6d366"/></g><g><path d="m401.977 89.523c-4.194-2.536-16.522-3.11-14.83 4.258 2.47 4.624 7.898-.998 11.559 1.908 3.937 2.185 7.318-4.099 3.271-6.166z"/><path d="m430.727 208.367c-2.71-6.1-9.34-8.397-15.943-4.639-8.606-11.369-20.382-5.619-26.835 4.976-14.797 5.195-31.843 4.025-46.842-3.346 4.309-12.413 6.971-25.318 7.921-38.427l17.759-17.361c24.042 12.471 46.643 9.415 40.086-25.272l23.194-12.344c1.007-.536 1.689-1.531 1.825-2.664s-.29-2.261-1.141-3.021l-11.77-10.505c3.612-16.589.19-34.799-9.073-49.042 16.129-7.854 10.907-26.288-5.113-30.129-27.344-11.333-64.783-12.258-81.865 12.95-5.161-5.773-11.818-7.605-16.587-7.254-9.167.844-13.82 8.186-8.942 17.544-9.689 3.509-7.32 16.116 1.129 20.375-20.4 18.78-13.525 59.207 12.348 67.529-1.629 2.099-3.259 4.252-4.923 6.245-21.844-11.241-48.33-16.253-74.14-14.146-.347-33.755-54.964-166.986-98.874-102.411-14.191 20.871-13.146 47.181-20.721 70.625-7.745 29.695-15.764 60.404-17.219 91.62-.284 19.104 3.413 39.097-.897 57.404-4.505 19.053-17.092 37.192-13.327 57.562 2.689 15.183 15.002 27.221 17.642 41.93 1.318 7.771-.344 15.645-2.103 23.981-11.26 39.107 19.308 73.099 33.263 107.15 14.54 38.076 51.025 50.441 77.348 17.986 19.779-25.103 16.93-61.559 34.73-86.89 11.314 17.4 22.021 35.182 32.058 53.285 2.273 4.242 6.297 11.002 12.916 12.368 3.081 12.809 5.464 48.562 22.676 47.51 2.854 1.216 86.878-23.48 91.741-24.4 2.324-.642 6.649-1.837 8.629-5.645 2.135-7.932-.888-17.141-6.489-23.503-5.012-5.581-11.627-8.445-18.636-8.066-15.314.517-38.098 6.993-40.379-9.313 1.578-2.349 2.27-5.275 1.811-8.208-6.385-40.878-38.873-86.541-73.021-121.929 5.605-9.337 5.582-21.628.181-31.035 13.449-8.957 26.145-19.901 38.847-31.297 18.723 7.637 41.411 7.212 61.857 4.981 8.096-.883 13.098-3.692 16.066-7.116 9.183 4.466 20.352 4.85 29.788.91 6.246-1.809 11.637-9.224 8.701-15.376 3.345-3.134 3.977-9.332 1.295-13.031 2.34-3.139 2.46-7.27 1.029-10.561zm-17.945-108.781 9.586 8.557-21.064 11.211c-1.375.732-2.098 2.286-1.773 3.81.622 2.916 1.147 6.087 1.375 9.181-5.315-.381-10.785-1.526-14.745-5.394-3.476-3.018-8.027 1.965-4.707 5.154 5.154 4.575 12.446 7.674 19.386 6.762-2.516 24.988-42.844-.899-53.448-10.664-3.525-2.942-7.991 2.127-4.597 5.251 4.692 4.107 10.878 8.661 17.585 12.618l-14.227 13.909-33.409-23.257c2.124-2.684 4.159-5.469 6.342-8.02 6.779-.396 14.044-3.799 19.993-9.88 7.255 1.098 13.894-2.746 17.117-9.946 1.796-4.237-4.342-7.031-6.355-2.888-5.502 12.526-23.184 3.499-16.381-8.247 8.602-10.444 23.438-1.355 31.733 6.389 1.878 1.944 5.46.805 5.865-1.87 3.858-19.234 28.774-29.581 35.045-48.376 7.03 12.686 9.204 28.222 5.62 42.234-.321 1.261.087 2.598 1.059 3.466zm-118.787-3.799c-2.21-13.484 2.639-25.869 13.304-33.977 2.341-1.66 1.487-5.631-1.332-6.179-9.81-1.814-10.408-11.999-2.514-8.29 3.471 1.826 6.858-2.706 4.13-5.518-5.938-6.69-7.864-11.354-.737-12.572 4.135-.301 9.84 2.169 13.287 8.351.617 1.107 1.784 1.791 3.048 1.791 1.298 0 2.493-.723 3.094-1.874 13.531-25.915 48.921-25.623 76.076-14.384 6.03 1.452 10.466 5.32 10.348 9.822-.031 3.965-3.522 7.252-9.11 8.58-1.469.342-2.596 1.688-2.678 3.195-1.559 20.917-28.338 31.321-35.14 50.648-31.461-24.908-52.512 6.785-33.878 20.589-16.821 14.355-34.699-.301-37.898-20.182zm-54.689 30.622c21.217-.602 41.748 3.536 59.77 11.974-10.507 8.614-21.425 16.642-32.73 24.052-26.99-12.773-57.912-.322-81.513 10.108l-6.849-28.991c17.684-10.586 38.826-16.504 61.322-17.143zm6.458 167.957c49.794 44.522 77.025 87.985 88.129 119.629-14.661 1.521-28.484 5.651-41.336 12.336-19.352-40.806-45.73-78.566-77.391-110.604 2.817-.714 5.461-1.475 7.884-2.235 4.357-1.489 2.335-7.927-2.09-6.659-16.916 7.343-76.294 14.455-84.291-31.474 9.717-.601 19.444-2.925 28.343-6.805 7.792 10.823 22.206 11.631 32.222 2.434 3.945 5.254 8.364 10.373 13.111 15.14 9.174 8.354 16.973 12.37 25.961 11.435 3.215-.922 6.363-1.997 9.458-3.197zm93.323 139.532c.656 4.06-3.569 5.409-6.56 6.76 0 0-28.512 12.3-28.512 12.3-2.645-6.83-5.487-13.593-8.516-20.281 12.588-6.592 26.163-10.573 40.586-11.883 1.377 4.692 2.373 9.077 3.002 13.104zm-146.59-114.544c5.07-.299 9.997-.968 14.631-1.847 32.54 32.305 59.68 70.623 79.321 112.231-4.28 2.562-8.445 5.419-12.488 8.572-23.864-41.704-51.218-81.644-81.464-118.956zm-13.403-85.062c-14.299 3.575-21.688 15.361-17.34 28.057-8.502 3.639-17.804 5.737-27.051 6.118-2.012-7.972-2.934-16.097.066-22.469 2.778-3.065 9.001-3.556 13.117-5.407 12.135-4.63 18.062-20.793 30.232-24.071-.711 5.642-.384 11.576.976 17.772zm13.273 31.744c-20.051 16.356-38.045-18.626-11.437-25.015 2.824 8.555 7.128 16.677 12.391 24.479-.335.13-.66.297-.954.536zm-12.39-56.834c-16.356.995-22.072 19.049-34.78 24.949-5.579 2.259-12.612 2.582-16.504 8.38-6.135 12.302-1.047 27.808 3.042 40.268 6.477 23.058 28.036 36.474 51.852 36.663 14.326 17.447 28.008 35.489 40.992 54.032-45.008 35.671-11.651 97.258-42.315 95.861-16.871-.769-43.452-47.802-44.689-65.995-2.355-34.625 4.888-49.882-14.244-83.267-13.463-26.512-18.658-41.4-4.934-68.157 3.665-8.144 8.37-16.599 8.467-25.895.134-12.815-1.886-21.972-2.74-29.351-2.822-24.381-3.053-26.372 17.346-68.747 8.077-20.164 10.56-42.202 7.247-63.667-2.382-10.02-4.322-29.712 8.105-30.733 11.58-.951 29.405 33.19 33.348 46.96 3.862 14.332 4.054 32.988 14.602 44.095-11.713 3.295-22.708 8.103-32.626 14.349-1.262.795-1.879 2.304-1.536 3.755l8.396 35.54c.438 2.077 2.898 3.296 4.815 2.386 9.748-4.336 21.035-9.35 32.762-12.725-1.935 6.95-1.157 14.648 2.163 21.054-7.616 3.554-15.355 6.874-23.222 9.931-5.324 2.069-11.897 4.636-15.547 10.314zm45.072-23.25c-3.107-5.803-3.426-13.075-.702-19.081.145-.32.221-.65.265-.981 5.153-1.09 10.341-1.765 15.477-1.846 1.893 4.326 2.253 9.375.529 13.829-5.126 2.808-10.313 5.507-15.569 8.079zm22.575-21.566c3.928.431 7.796 1.277 11.565 2.632-3.474 2.168-6.99 4.266-10.531 6.32.196-3.017-.148-6.072-1.034-8.952zm-28.692 273.789c-4.093 15.903-7.958 30.924-17.478 43.176-23.003 28.501-52.974 16.436-65.405-16.267-13.153-33.275-43.486-65.432-32.904-103.095 9.178-37.776-7.119-39.024-15.508-68.636-2.189-11.706 2.195-23.173 6.836-35.311 12.87-29.925 7.668-47.769 7.506-78.218 2.242-45.434 18.099-88.544 27.44-132.737 2.144-8.808 4.366-17.911 9.14-25.516 41.312-53.097 86.537 71.51 86.383 98.954-3.987.502-7.916 1.174-11.782 1.999-12.329-7.945-12.191-29.553-16.268-43.897-4.577-17.53-41.838-82.717-56.291-36.313-2.392 7.681.068 15.468 1.218 23.03 3.112 20.12.797 40.755-6.692 59.684-28.821 57.277-13.507 54.18-15.25 101.141-.293 7.898-4.309 15.145-7.832 22.871-14.82 28.908-9.063 46.572 5.034 74.157 18.748 32.367 10.872 47.178 13.554 80.894 1.44 18.102 26.735 70.603 51.018 72.244 20.931 1.414 22.268-19.001 22.884-36.771.816-18.691 1.834-41.829 24.031-60.319 3.044 4.422 6.056 8.866 9.02 13.341-10.344 13.371-14.575 29.74-18.654 45.589zm60.887 10.519c-.784-1.414-1.585-2.82-2.378-4.23 3.869-3.07 7.849-5.868 11.95-8.358 2.918 6.469 5.658 13.01 8.21 19.614-9.432 4.275-13.015 1.953-17.782-7.026zm123.418 30.339c-.519 1.12-2.889 1.474-4.05 1.795l-82.745 22.871c-3.733 1.032-8.236 2.464-10.658.479-2.267-1.858-3.411-4.962-4.67-7.974 32.594-12.163 66.54-20.951 100.824-26.708 1.211 3.085 2.629 6.669 1.299 9.537zm-28.355-20.925c8.899-.952 16.687-2.458 23.167 5.029-13.402 2.25-26.739 5.009-39.96 8.263-3.87-3.259-1.544-9.477.313-12.432 5.52.324 11.34-.302 16.48-.86zm-23.784-.29c-2.36 4.943-3.055 10.818-.373 15.448-17.561 4.582-34.895 10.037-51.878 16.334-2.315-8.171-3.417-17.051-5.098-25.253 2.854-.607 5.466-1.718 7.524-2.606 1.462-.67 36.499-15.658 36.926-16 2.323 6.945 7.117 10.451 12.899 12.077zm-83.241-152.132c-5.019-5.03-10.048-9.821-15.01-14.331 4.925-2.279 9.719-4.879 14.41-7.741 3.731 6.687 3.98 15.195.6 22.072zm105.501-59.112c-33.512 2.851-75.9 1.137-90.31-35.776-.65-1.815-2.647-2.758-4.462-2.109-1.815.65-2.758 2.648-2.108 4.463 5.327 14.867 15.665 25.37 28.62 32.209-22.14 19.76-44.329 37.809-70.341 45.385-5.908.253-12.29-2.884-19.511-9.591-18.017-18.109-35.103-45.46-29.38-68.23 2.444-3.746 7.611-5.754 12.186-7.532 39.591-15.385 76.153-37.019 108.7-64.297.013-.004.025-.012.038-.016l35.336 24.6c-.829 12.337-3.253 24.49-7.202 36.196-11.901-7.559-20.885-18.724-25.089-31.458-1.541-4.323-7.964-2.228-6.628 2.188 10.156 32.904 50.695 53.991 83.585 43.779 4.081 12.51 2.65 28.821-13.434 30.189zm49.551-24.602c2.382 1.331 1.869 5.094-.781 5.742-1.454.283-2.57 1.452-2.786 2.917-.798 2.738 2.949 3.406 2.892 5.2-.254 2.121-2.782 4.493-5.046 4.988-7.448 3.174-16.272 2.976-23.63-.399 3.47-8.442 2.265-18.888-.349-26.832 2.691-5.206 6.99-8.918 10.508-9.05 3.037-.57 5.049 3.492 7.563 5.713 4.576 2.815 10.985-4.734 13.046.9.228.524 1.226 3.206-1.465 4.601-2.497 1.192-2.467 5.065.048 6.22z"/></g></g></svg>